<?xml version="1.0" standalone="no"?>
<!DOCTYPE svg PUBLIC "-//W3C//DTD SVG 20010904//EN"
 "http://www.w3.org/TR/2001/REC-SVG-20010904/DTD/svg10.dtd">
<svg version="1.0" xmlns="http://www.w3.org/2000/svg"
 width="225.000000pt" height="225.000000pt" viewBox="0 0 225.000000 225.000000"
 preserveAspectRatio="xMidYMid meet">

<g transform="translate(0.000000,225.000000) scale(0.100000,-0.100000)"
fill="#000000" stroke="none">
<path d="M2039 2144 c-57 -57 -105 -101 -108 -99 -3 2 -156 40 -339 85 l-332
81 -54 -15 c-50 -15 -76 -39 -617 -580 -388 -388 -568 -575 -576 -598 -7 -18
-12 -49 -12 -68 -2 -83 8 -96 278 -371 142 -146 331 -333 419 -417 l161 -152
73 0 c56 0 81 5 108 21 52 31 1118 1106 1141 1151 10 20 19 53 19 71 0 19 -36
182 -80 362 l-81 328 101 102 c88 90 100 106 100 137 0 42 -16 58 -63 61 -34
3 -43 -4 -138 -99z m-484 -146 c138 -33 253 -63 257 -67 4 -4 -25 -39 -65 -78
l-72 -72 -43 10 c-137 31 -263 -99 -232 -238 39 -173 257 -209 359 -58 32 48
33 53 28 121 l-5 71 72 72 73 72 62 -254 c34 -140 65 -273 68 -297 l6 -42
-549 -549 c-425 -424 -555 -549 -574 -549 -19 0 -116 91 -417 393 -244 243
-393 400 -393 412 0 20 1041 1072 1093 1105 34 21 25 22 332 -52z m73 -354
c43 -30 15 -114 -38 -114 -29 0 -60 36 -60 69 0 31 30 61 60 61 9 0 26 -7 38
-16z"/>
<path d="M845 1491 c-177 -107 -107 -371 97 -371 101 0 186 78 196 179 6 70
-30 145 -90 184 -35 22 -53 27 -108 27 -46 0 -74 -6 -95 -19z m135 -131 c28
-28 25 -64 -7 -89 -60 -48 -128 34 -73 89 11 11 29 20 40 20 11 0 29 -9 40
-20z"/>
<path d="M1275 1094 c-60 -8 -247 -29 -415 -48 -168 -19 -312 -37 -321 -41 -9
-3 -22 -17 -29 -30 -18 -33 3 -83 38 -92 13 -3 113 4 221 16 108 12 282 31
386 41 254 26 275 30 296 51 19 19 25 64 11 86 -7 12 -57 34 -70 32 -4 -1 -56
-7 -117 -15z"/>
<path d="M977 855 c-94 -35 -137 -96 -137 -192 0 -182 215 -261 342 -126 34
36 48 73 48 128 0 58 -12 86 -56 134 -25 29 -51 45 -87 56 -60 18 -61 18 -110
0z m98 -145 c24 -27 22 -70 -5 -92 -29 -23 -41 -23 -74 3 -31 25 -34 61 -6 89
25 25 62 26 85 0z"/>
</g>
</svg>
