<?xml version="1.0" encoding="UTF-8" standalone="no"?>
<svg
   version="1.1"
   viewBox="0 0 614.15996 94.724703"
   id="svg1765"
   sodipodi:docname="logo-gotogroup.svg"
   width="614.15997"
   height="94.724709"
   inkscape:version="1.1.1 (c3084ef, 2021-09-22)"
   xmlns:inkscape="http://www.inkscape.org/namespaces/inkscape"
   xmlns:sodipodi="http://sodipodi.sourceforge.net/DTD/sodipodi-0.dtd"
   xmlns="http://www.w3.org/2000/svg"
   xmlns:svg="http://www.w3.org/2000/svg">
  <sodipodi:namedview
     id="namedview1767"
     pagecolor="#ffffff"
     bordercolor="#666666"
     borderopacity="1.0"
     inkscape:pageshadow="2"
     inkscape:pageopacity="0.0"
     inkscape:pagecheckerboard="0"
     showgrid="false"
     inkscape:zoom="0.79726149"
     inkscape:cx="763.23767"
     inkscape:cy="25.713019"
     inkscape:window-width="2560"
     inkscape:window-height="1387"
     inkscape:window-x="0"
     inkscape:window-y="25"
     inkscape:window-maximized="1"
     inkscape:current-layer="Page_3" />
  <!-- Generator: Adobe Illustrator 29.0.0, SVG Export Plug-In . SVG Version: 2.1.0 Build 186)  -->
  <defs
     id="defs826">
    <style
       id="style824">
      .st0 {
        font-family: MyriadPro-Regular, 'Myriad Pro';
      }

      .st0, .st1, .st2, .st3, .st4 {
        font-size: 49.2px;
      }

      .st5 {
        font-size: 30.64px;
      }

      .st5, .st6, .st7, .st8, .st9, .st10, .st4 {
        fill: #758a3b;
      }

      .st5, .st11, .st10 {
        font-family: Nunito-ExtraBold, 'Nunito ExtraBold';
        font-weight: 700;
      }

      .st12, .st2, .st13 {
        fill: #e8b258;
      }

      .st12, .st7, .st14, .st8, .st15, .st16, .st17 {
        fill-rule: evenodd;
      }

      .st18, .st1, .st19, .st20, .st21, .st15 {
        fill: #333;
      }

      .st18, .st19, .st22, .st9 {
        font-family: Nunito-SemiBold, 'Nunito SemiBold';
        font-weight: 600;
      }

      .st18, .st22, .st9, .st10 {
        font-size: 24px;
      }

      .st23, .st22, .st24, .st11, .st17 {
        fill: #e19a26;
      }

      .st1, .st2, .st25, .st20, .st3, .st24, .st4 {
        font-family: Bolonewt, Bolonewt;
      }

      .st26, .st14, .st25, .st3 {
        fill: #fff;
      }

      .st25 {
        font-size: 41.21px;
      }

      .st19, .st20 {
        font-size: 19.53px;
      }

      .st8 {
        stroke: #758a3b;
        stroke-miterlimit: 10;
      }

      .st24, .st11 {
        font-size: 67.92px;
      }

      .st16 {
        fill: #dabea9;
      }
    </style>
  </defs>
  <g
     id="Page_3"
     transform="translate(-112.37,-242.27)">
    <g
       id="g961">
      <g
         id="g933">
        <path
           class="st6"
           d="m 259.8,275.21 c 0,0.58 -0.69,1.26 -2.06,2.07 -1.25,0.73 -2.18,1.09 -2.78,1.09 -0.35,0 -0.65,-0.11 -0.9,-0.34 -5.81,-5.23 -12.12,-7.85 -18.92,-7.85 -4.66,0 -8.56,0.9 -11.72,2.7 -3.53,2.03 -6.41,5.23 -8.64,9.61 -2.1,4.13 -3.15,8.32 -3.15,12.58 0,7.36 2.59,13.61 7.77,18.76 5.18,5.15 11.45,7.72 18.81,7.72 6.31,0 11.39,-1.85 15.24,-5.56 v -17.65 h -18.96 c -1.08,0 -1.61,-0.42 -1.61,-1.28 0,-0.6 0.73,-1.36 2.18,-2.29 1.45,-0.93 2.5,-1.39 3.15,-1.39 h 20.09 c 0.93,0 1.39,0.46 1.39,1.39 v 20.2 c 0,1.38 -3.27,3.91 -9.8,7.58 -4.68,2.63 -9.6,3.94 -14.76,3.94 -8.16,0 -15.16,-2.93 -20.99,-8.79 -5.83,-5.86 -8.75,-12.88 -8.75,-21.07 0,-11.42 6.02,-20.58 18.06,-27.49 4.58,-2.63 9.5,-3.94 14.76,-3.94 2.4,0 4.97,0.39 7.7,1.16 2.43,0.68 5.09,1.79 8,3.34 3.93,2.08 5.9,3.9 5.9,5.48 z"
           id="path929" />
        <path
           class="st6"
           d="m 328.37,295.08 c 0,11.37 -6.02,20.53 -18.06,27.49 -4.55,2.63 -9.47,3.94 -14.76,3.94 -8.24,0 -15.27,-2.97 -21.1,-8.9 -5.76,-5.86 -8.64,-12.84 -8.64,-20.95 0,-5.38 1.36,-10.38 4.09,-14.98 2.63,-4.48 6.2,-8.02 10.7,-10.63 3.53,-2.03 6.38,-3.43 8.56,-4.21 2.95,-1.08 6.11,-1.61 9.46,-1.61 8.24,0 15.27,2.97 21.1,8.9 5.76,5.86 8.64,12.84 8.64,20.95 z m -6.24,1.57 c 0,-7.31 -2.57,-13.55 -7.71,-18.72 -5.14,-5.17 -11.43,-7.75 -18.87,-7.75 -4.11,0 -8.01,0.9 -11.72,2.7 -3.63,2.45 -6.48,5.59 -8.56,9.42 -2.15,3.98 -3.23,8.24 -3.23,12.77 0,7.33 2.58,13.58 7.74,18.74 5.16,5.16 11.44,7.74 18.85,7.74 4.11,0 8.01,-0.9 11.72,-2.7 3.63,-2.45 6.48,-5.59 8.56,-9.42 2.15,-3.98 3.23,-8.24 3.23,-12.77 z"
           id="path931" />
      </g>
      <g
         id="g939">
        <path
           class="st13"
           d="m 379.52,266.5 c 0,0.55 -0.31,1 -0.94,1.35 -0.7,0.5 -1.4,0.99 -2.1,1.46 -0.85,0.58 -1.61,0.86 -2.29,0.86 h -14.12 v 53.06 c 0,0.58 -0.59,1.28 -1.78,2.12 -1.19,0.84 -2.23,1.26 -3.13,1.26 -0.9,0 -1.31,-0.47 -1.31,-1.43 v -55.01 h -17.84 c -1.08,0 -1.61,-0.43 -1.61,-1.28 0,-0.55 0.31,-1 0.94,-1.35 0.7,-0.5 1.4,-0.99 2.1,-1.46 0.85,-0.58 1.62,-0.86 2.29,-0.86 h 38.19 c 1.08,0 1.61,0.43 1.61,1.28 z"
           id="path935" />
        <path
           class="st13"
           d="m 448.08,295.08 c 0,11.37 -6.02,20.53 -18.06,27.49 -4.56,2.63 -9.47,3.94 -14.76,3.94 -8.24,0 -15.27,-2.97 -21.1,-8.9 -5.76,-5.86 -8.64,-12.84 -8.64,-20.95 0,-5.38 1.36,-10.38 4.09,-14.98 2.63,-4.48 6.2,-8.02 10.7,-10.63 3.53,-2.03 6.38,-3.43 8.56,-4.21 2.95,-1.08 6.11,-1.61 9.46,-1.61 8.24,0 15.27,2.97 21.1,8.9 5.76,5.86 8.64,12.84 8.64,20.95 z m -6.23,1.57 c 0,-7.31 -2.57,-13.55 -7.72,-18.72 -5.14,-5.17 -11.43,-7.75 -18.87,-7.75 -4.11,0 -8.01,0.9 -11.71,2.7 -3.63,2.45 -6.48,5.59 -8.56,9.42 -2.15,3.98 -3.23,8.24 -3.23,12.77 0,7.33 2.58,13.58 7.73,18.74 5.15,5.16 11.44,7.74 18.85,7.74 4.11,0 8.01,-0.9 11.72,-2.7 3.63,-2.45 6.48,-5.59 8.56,-9.42 2.15,-3.98 3.23,-8.24 3.23,-12.77 z"
           id="path937" />
      </g>
      <g
         id="g951">
        <path
           class="st21"
           d="m 508.5,275.21 c 0,0.58 -0.69,1.26 -2.07,2.07 -1.25,0.73 -2.18,1.09 -2.78,1.09 -0.35,0 -0.65,-0.11 -0.9,-0.34 -5.81,-5.23 -12.12,-7.85 -18.92,-7.85 -4.66,0 -8.56,0.9 -11.71,2.7 -3.53,2.03 -6.41,5.23 -8.64,9.61 -2.1,4.13 -3.15,8.32 -3.15,12.58 0,7.36 2.59,13.61 7.77,18.76 5.18,5.15 11.45,7.72 18.81,7.72 6.31,0 11.39,-1.85 15.25,-5.56 V 298.34 H 483.2 c -1.08,0 -1.62,-0.42 -1.62,-1.28 0,-0.6 0.73,-1.36 2.18,-2.29 1.45,-0.93 2.5,-1.39 3.15,-1.39 H 507 c 0.93,0 1.39,0.46 1.39,1.39 v 20.2 c 0,1.38 -3.27,3.91 -9.8,7.58 -4.68,2.63 -9.6,3.94 -14.76,3.94 -8.16,0 -15.16,-2.93 -20.99,-8.79 -5.83,-5.86 -8.75,-12.88 -8.75,-21.07 0,-11.42 6.02,-20.58 18.06,-27.49 4.58,-2.63 9.5,-3.94 14.76,-3.94 2.4,0 4.97,0.39 7.7,1.16 2.43,0.68 5.09,1.79 8,3.34 3.93,2.08 5.9,3.9 5.9,5.48 z"
           id="path941" />
        <path
           class="st21"
           d="m 558.36,323.09 c 0,0.75 -0.56,1.5 -1.69,2.23 -1.13,0.74 -2.15,1.11 -3.08,1.11 -0.43,0 -0.75,-0.11 -0.98,-0.34 l -18.36,-18.36 h -13.52 v 15.51 c 0,0.58 -0.59,1.28 -1.78,2.12 -1.19,0.84 -2.23,1.26 -3.13,1.26 -0.9,0 -1.31,-0.47 -1.31,-1.43 v -37.92 c 0,-4.53 1.26,-8.42 3.79,-11.68 2.03,-2.6 5.22,-5.16 9.58,-7.66 3.13,-1.8 6.48,-2.7 10.06,-2.7 5.63,0 10.43,2.02 14.4,6.06 3.97,4.04 5.95,8.84 5.95,14.4 0,4.53 -1.26,8.42 -3.79,11.68 -2.03,2.6 -5.22,5.16 -9.57,7.66 -0.98,0.55 -1.9,1 -2.78,1.35 l 15.81,15.81 c 0.27,0.28 0.41,0.58 0.41,0.9 z m -6.3,-35.82 c 0,-4.73 -1.66,-8.76 -4.98,-12.09 -3.32,-3.33 -7.39,-4.99 -12.22,-4.99 -2.45,0 -4.79,0.49 -7.02,1.46 -4.73,3.45 -7.1,8.14 -7.1,14.04 v 17.08 h 17.2 c 2.45,0 4.79,-0.49 7.02,-1.46 4.73,-3.45 7.1,-8.13 7.1,-14.04 z"
           id="path943" />
        <path
           class="st21"
           d="m 626.93,295.08 c 0,11.37 -6.02,20.53 -18.06,27.49 -4.56,2.63 -9.47,3.94 -14.76,3.94 -8.24,0 -15.27,-2.97 -21.1,-8.9 -5.76,-5.86 -8.64,-12.84 -8.64,-20.95 0,-5.38 1.36,-10.38 4.09,-14.98 2.63,-4.48 6.2,-8.02 10.7,-10.63 3.53,-2.03 6.38,-3.43 8.56,-4.21 2.95,-1.08 6.11,-1.61 9.46,-1.61 8.24,0 15.27,2.97 21.1,8.9 5.76,5.86 8.64,12.84 8.64,20.95 z m -6.23,1.57 c 0,-7.31 -2.57,-13.55 -7.72,-18.72 -5.14,-5.17 -11.43,-7.75 -18.87,-7.75 -4.11,0 -8.01,0.9 -11.71,2.7 -3.63,2.45 -6.48,5.59 -8.56,9.42 -2.15,3.98 -3.23,8.24 -3.23,12.77 0,7.33 2.58,13.58 7.73,18.74 5.15,5.16 11.44,7.74 18.85,7.74 4.11,0 8.01,-0.9 11.72,-2.7 3.63,-2.45 6.48,-5.59 8.56,-9.42 2.15,-3.98 3.23,-8.24 3.23,-12.77 z"
           id="path945" />
        <path
           class="st21"
           d="m 676.72,304.46 c 0,4.53 -1.26,8.42 -3.79,11.68 -2.03,2.6 -5.22,5.16 -9.57,7.66 -3.13,1.8 -6.48,2.7 -10.06,2.7 -5.63,0 -10.44,-2.04 -14.42,-6.12 -3.96,-4 -5.93,-8.79 -5.93,-14.34 v -37.55 c 0,-0.58 0.59,-1.28 1.78,-2.12 1.19,-0.84 2.23,-1.26 3.14,-1.26 0.91,0 1.31,0.48 1.31,1.43 v 37.92 c 0,4.73 1.66,8.76 4.97,12.09 3.32,3.33 7.39,4.99 12.22,4.99 2.45,0 4.79,-0.49 7.02,-1.46 4.73,-3.45 7.1,-8.13 7.1,-14.04 v -37.55 c 0,-0.58 0.59,-1.28 1.78,-2.12 1.19,-0.84 2.23,-1.26 3.14,-1.26 0.91,0 1.31,0.48 1.31,1.43 z"
           id="path947" />
        <path
           class="st21"
           d="m 726.51,285.69 c 0,4.53 -1.26,8.42 -3.79,11.68 -2.03,2.6 -5.22,5.16 -9.57,7.66 -3.13,1.8 -6.48,2.7 -10.06,2.7 -5.46,0 -10.16,-1.93 -14.12,-5.78 v 21.29 c 0,0.58 -0.59,1.28 -1.78,2.12 -1.19,0.84 -2.23,1.26 -3.13,1.26 -0.9,0 -1.31,-0.47 -1.31,-1.43 v -37.92 c 0,-3.68 0.93,-7.08 2.78,-10.21 1.8,-3.05 4.24,-5.47 7.32,-7.25 2.88,-1.68 4.98,-2.77 6.31,-3.27 2.2,-0.88 4.54,-1.31 7.02,-1.31 5.63,0 10.43,2.02 14.4,6.06 3.97,4.04 5.95,8.84 5.95,14.4 z m -6.24,1.58 c 0,-4.73 -1.66,-8.76 -4.98,-12.09 -3.32,-3.33 -7.39,-4.99 -12.22,-4.99 -2.45,0 -4.79,0.49 -7.02,1.46 -4.73,3.45 -7.1,8.14 -7.1,14.04 0,3.13 0.75,5.98 2.25,8.56 1.5,2.58 3.58,4.64 6.23,6.2 2.65,1.56 5.56,2.33 8.71,2.33 2.45,0 4.79,-0.49 7.02,-1.46 4.73,-3.45 7.1,-8.13 7.1,-14.04 z"
           id="path949" />
      </g>
      <path
         class="st16"
         d="m 112.38,297.79 c 0,13.77 6.36,22.68 14.15,29.69 4.05,3.64 11.3,6.97 16.62,8.22 8.42,1.97 25.53,1.76 32.69,-1.1 2.63,-1.05 3.74,-2.33 6.34,-3.16 7.09,-2.25 12.2,-0.4 17.13,-0.4 4.22,0 -2.37,-10.59 -11.69,-10.59 h -2.19 c 0,-8.98 4.64,-37.14 -3.65,-44.57 0,13.57 -0.98,24.64 -4.33,34.75 -4.73,14.23 -13.08,20.87 -28.5,19.26 -21.71,-2.26 -23.09,-22.9 -24.74,-23.04 -6.78,-0.68 -9.11,-4.18 -11.84,-9.06"
         id="path953" />
      <path
         class="st7"
         d="m 160.24,314.6 c 0.47,-1.79 1,-3.88 1.37,-5.57 3.5,-16.18 -6.2,-50.18 -17.53,-63.03 -2.43,-2.28 -5.53,-3.73 -10.15,-3.73 0.37,1.58 1.47,2.92 2.19,4.38 9.96,20.09 19.67,36.77 19.73,60.28 0.01,4.3 -1.28,14.64 -0.84,18.38 0.13,1.1 0.36,1.68 1.41,-0.07 0.65,-1.09 3.36,-8.92 3.81,-10.63"
         id="path955" />
      <path
         class="st12"
         d="m 159.04,319.71 c -0.99,2.48 -2.91,7.89 -1.21,6.77 1.46,-0.96 1.46,-0.96 2.41,-1.94 14.34,-14.79 11.77,-42.04 6.27,-58.95 -2.63,-8.08 -5.1,-18.94 -15.4,-18.94 0.46,5.56 8.58,18.85 11.48,34.55 3.26,17.64 2.86,22.37 -3.54,38.51"
         id="path957" />
      <path
         class="st15"
         d="m 166.74,316.87 c -3.15,6.12 -5.88,7.09 -8.33,9.78 2.59,0.27 10.3,-3.93 14.54,-12.85 6.5,-13.66 4.54,-34.37 2.99,-42.31 -1.55,-7.94 -2.62,-16.29 -8.77,-16.8 -3.91,0.46 0.92,6.89 2.86,19.06 1.94,12.16 3.49,29.94 -3.3,43.13"
         id="path959" />
    </g>
  </g>
</svg>
